<?xml version="1.0" encoding="UTF-8" standalone="no"?>
<!-- Created with Inkscape (http://www.inkscape.org/) -->

<svg
   xmlns:dc="http://purl.org/dc/elements/1.1/"
   xmlns:cc="http://creativecommons.org/ns#"
   xmlns:rdf="http://www.w3.org/1999/02/22-rdf-syntax-ns#"
   xmlns:svg="http://www.w3.org/2000/svg"
   xmlns="http://www.w3.org/2000/svg"
   xmlns:sodipodi="http://sodipodi.sourceforge.net/DTD/sodipodi-0.dtd"
   xmlns:inkscape="http://www.inkscape.org/namespaces/inkscape"
   width="63.816341"
   height="63.826233"
   viewBox="0 0 16.88474 16.887358"
   version="1.1"
   id="svg289"
   inkscape:version="0.92.3 (2405546, 2018-03-11)"
   sodipodi:docname="mijter.svg">
  <defs
     id="defs283" />
  <sodipodi:namedview
     id="base"
     pagecolor="#ffffff"
     bordercolor="#666666"
     borderopacity="1.0"
     inkscape:pageopacity="0.0"
     inkscape:pageshadow="2"
     inkscape:zoom="8"
     inkscape:cx="-4.168725"
     inkscape:cy="32.758487"
     inkscape:document-units="px"
     inkscape:current-layer="layer1"
     showgrid="false"
     showborder="false"
     units="px"
     inkscape:window-width="1533"
     inkscape:window-height="845"
     inkscape:window-x="67"
     inkscape:window-y="27"
     inkscape:window-maximized="1"
     inkscape:object-paths="false"
     inkscape:snap-nodes="true"
     fit-margin-top="0"
     fit-margin-left="0"
     fit-margin-right="0"
     fit-margin-bottom="0" />
  <metadata
     id="metadata286">
    <rdf:RDF>
      <cc:Work
         rdf:about="">
        <dc:format>image/svg+xml</dc:format>
        <dc:type
           rdf:resource="http://purl.org/dc/dcmitype/StillImage" />
        <dc:title />
      </cc:Work>
    </rdf:RDF>
  </metadata>
  <g
     inkscape:label="Layer 1"
     inkscape:groupmode="layer"
     id="layer1"
     transform="translate(14.398333,-298.15679)">
    <g
       id="g850"
       transform="matrix(0.17474311,0,0,0.18991677,-4.9128015,255.16982)"
       style="stroke-width:0.54893172;stroke-miterlimit:4;stroke-dasharray:none;stroke:none"
       inkscape:export-filename="/home/cubit32/Pictures/mijter.png"
       inkscape:export-xdpi="96"
       inkscape:export-ydpi="96">
      <path
         sodipodi:nodetypes="cccc"
         inkscape:connector-curvature="0"
         id="path845"
         d="m -53.975,314.99166 96.043749,10e-6 c 0.03592,-45.75341 -6.992198,-88.37085 -47.0958322,-88.37085 -39.5705118,0 -44.3324398,48.10123 -48.9479168,88.37084 z"
         style="opacity:1;vector-effect:none;fill:#c90000;fill-opacity:1;stroke:none;stroke-width:0.54893172;stroke-linecap:butt;stroke-linejoin:miter;stroke-miterlimit:4;stroke-dasharray:none;stroke-dashoffset:0;stroke-opacity:1" />
      <path
         inkscape:connector-curvature="0"
         id="path841"
         d="M -48.683333,311.02292 H 38.1 c 0,0 1.5875,-80.16877 -42.3333333,-80.69793 -43.9208327,-0.52917 -44.4499997,80.69793 -44.4499997,80.69793 z"
         style="opacity:1;vector-effect:none;fill:#870000;fill-opacity:1;stroke:none;stroke-width:0.54893172;stroke-linecap:butt;stroke-linejoin:miter;stroke-miterlimit:4;stroke-dasharray:none;stroke-dashoffset:0;stroke-opacity:1" />
      <path
         sodipodi:nodetypes="ccccccccccccc"
         inkscape:connector-curvature="0"
         id="path843"
         d="m -15.214053,232.10167 c 0,0 6.9458242,29.51031 3.04322,33.41291 -4.894792,5.35781 -29.879253,1.94956 -29.879253,1.94956 -1.363718,4.51632 -2.515606,9.13658 -3.421705,13.87745 0,0 27.943145,-10.86607 32.904083,-6.83117 4.8947917,4.63021 -1.190625,36.5125 -1.190625,36.5125 H 2.1166666 c 0,0 -7.6067707,-32.54375 -3.4395832,-37.30625 4.9609375,-4.49792 35.9938846,2.67107 35.9938846,2.67107 -1.006656,-4.86771 -2.27804,-9.66994 -3.908663,-14.38332 0,0 -29.1748049,6.55286 -33.2758466,2.45182 -4.6302084,-4.56406 1.56642676,-33.93652 1.56642676,-33.93652 -4.21435436,-0.37045 -8.31473806,-0.40824 -14.26693816,1.58195 z"
         style="opacity:1;vector-effect:none;fill:#fff700;fill-opacity:1;stroke:none;stroke-width:0.54893172;stroke-linecap:butt;stroke-linejoin:miter;stroke-miterlimit:4;stroke-dasharray:none;stroke-dashoffset:0;stroke-opacity:1" />
    </g>
  </g>
</svg>
