<?xml version="1.0" encoding="UTF-8" standalone="no"?>
<!-- Created with Inkscape (http://www.inkscape.org/) -->

<svg
   xmlns:dc="http://purl.org/dc/elements/1.1/"
   xmlns:cc="http://creativecommons.org/ns#"
   xmlns:rdf="http://www.w3.org/1999/02/22-rdf-syntax-ns#"
   xmlns:svg="http://www.w3.org/2000/svg"
   xmlns="http://www.w3.org/2000/svg"
   xmlns:sodipodi="http://sodipodi.sourceforge.net/DTD/sodipodi-0.dtd"
   xmlns:inkscape="http://www.inkscape.org/namespaces/inkscape"
   width="390.45023"
   height="458.68585"
   viewBox="0 0 103.30662 121.36064"
   version="1.1"
   id="svg289"
   inkscape:version="0.92.3 (2405546, 2018-03-11)"
   sodipodi:docname="sinterklaas.svg">
  <defs
     id="defs283" />
  <sodipodi:namedview
     id="base"
     pagecolor="#ffffff"
     bordercolor="#666666"
     borderopacity="1.0"
     inkscape:pageopacity="0.0"
     inkscape:pageshadow="2"
     inkscape:zoom="0.70710678"
     inkscape:cx="32.392641"
     inkscape:cy="132.78816"
     inkscape:document-units="px"
     inkscape:current-layer="layer1"
     showgrid="false"
     showborder="false"
     units="px"
     inkscape:window-width="1533"
     inkscape:window-height="845"
     inkscape:window-x="67"
     inkscape:window-y="27"
     inkscape:window-maximized="1"
     inkscape:object-paths="false"
     inkscape:snap-nodes="false"
     fit-margin-top="0"
     fit-margin-left="0"
     fit-margin-right="0"
     fit-margin-bottom="0"
     inkscape:snap-global="true" />
  <metadata
     id="metadata286">
    <rdf:RDF>
      <cc:Work
         rdf:about="">
        <dc:format>image/svg+xml</dc:format>
        <dc:type
           rdf:resource="http://purl.org/dc/dcmitype/StillImage" />
        <dc:title />
      </cc:Work>
    </rdf:RDF>
  </metadata>
  <g
     inkscape:label="Layer 1"
     inkscape:groupmode="layer"
     id="layer1"
     transform="translate(238.76564,-375.11473)">
    <path
       style="opacity:1;vector-effect:none;fill:#730513;fill-opacity:1;stroke:none;stroke-width:0.26458332px;stroke-linecap:butt;stroke-linejoin:miter;stroke-miterlimit:4;stroke-dasharray:none;stroke-dashoffset:0;stroke-opacity:1"
       d="m -141.35364,471.55885 c 0,0 3.175,2.18281 3.63802,3.83646 0.46302,1.65365 1.5875,8.86354 1.71979,12.36927 0.13229,3.50573 0.39688,8.33438 0.39688,8.33438 l -17.79323,-0.46302 -2.71198,-30.36094 z"
       id="path919"
       inkscape:connector-curvature="0"
       inkscape:export-filename="/home/cubit32/Pictures/sinterklaas.png"
       inkscape:export-xdpi="49.18399"
       inkscape:export-ydpi="49.18399" />
    <path
       style="opacity:1;vector-effect:none;fill:#ffffff;fill-opacity:1;stroke:none;stroke-width:0.26458332px;stroke-linecap:butt;stroke-linejoin:miter;stroke-miterlimit:4;stroke-dasharray:none;stroke-dashoffset:0;stroke-opacity:1"
       d="m -168.60573,495.96666 16.7349,-0.13229 c -0.30298,-9.41514 -0.0856,-18.86497 -2.91042,-28.11198 l -0.79375,-0.19843 -11.57552,-7.01146 -4.63021,3.30729 z"
       id="path917"
       inkscape:connector-curvature="0"
       sodipodi:nodetypes="ccccccc"
       inkscape:export-filename="/home/cubit32/Pictures/sinterklaas.png"
       inkscape:export-xdpi="49.18399"
       inkscape:export-ydpi="49.18399" />
    <path
       style="opacity:1;vector-effect:none;fill:#ffffff;fill-opacity:1;stroke:none;stroke-width:0.26458332px;stroke-linecap:butt;stroke-linejoin:miter;stroke-miterlimit:4;stroke-dasharray:none;stroke-dashoffset:0;stroke-opacity:1"
       d="m -225.62893,495.87525 h 19.45722 l 0.37418,-34.89206 -19.92495,5.42557 z"
       id="path915"
       inkscape:connector-curvature="0"
       inkscape:export-filename="/home/cubit32/Pictures/sinterklaas.png"
       inkscape:export-xdpi="49.18399"
       inkscape:export-ydpi="49.18399" />
    <path
       style="opacity:1;vector-effect:none;fill:#640510;fill-opacity:1;stroke:none;stroke-width:0.26458332px;stroke-linecap:butt;stroke-linejoin:miter;stroke-miterlimit:4;stroke-dasharray:none;stroke-dashoffset:0;stroke-opacity:1"
       d="m -234.14147,469.40221 c 0,0 -3.64823,7.48352 -4.20949,13.56391 -0.56127,6.08039 0.18709,13.47039 -0.28063,13.37683 -0.46773,-0.0935 13.00266,-0.18708 13.47038,-0.4677 0.46772,-0.28064 0.56127,-28.9052 0.56127,-28.9052 z"
       id="path913"
       inkscape:connector-curvature="0"
       inkscape:export-filename="/home/cubit32/Pictures/sinterklaas.png"
       inkscape:export-xdpi="49.18399"
       inkscape:export-ydpi="49.18399" />
    <path
       style="opacity:1;vector-effect:none;fill:#730513;fill-opacity:1;stroke:none;stroke-width:0.26458332px;stroke-linecap:butt;stroke-linejoin:miter;stroke-miterlimit:4;stroke-dasharray:none;stroke-dashoffset:0;stroke-opacity:1"
       d="m -183.62083,454.95625 4.63021,40.94427 10.4705,0.11504 c 0,0 1.6838,-14.68647 1.12254,-17.77344 -0.56127,-3.08695 -0.0935,-17.16538 -0.0935,-17.16538 l -12.90912,-8.69962 z"
       id="path907"
       inkscape:connector-curvature="0"
       sodipodi:nodetypes="ccccccc"
       inkscape:export-filename="/home/cubit32/Pictures/sinterklaas.png"
       inkscape:export-xdpi="49.18399"
       inkscape:export-ydpi="49.18399" />
    <path
       style="opacity:1;vector-effect:none;fill:#ff9f00;fill-opacity:1;stroke:none;stroke-width:0.26458332px;stroke-linecap:butt;stroke-linejoin:miter;stroke-miterlimit:4;stroke-dasharray:none;stroke-dashoffset:0;stroke-opacity:1"
       d="m -180.07284,453.59319 c 0,0 16.93152,12.16078 19.73785,12.72204 2.80633,0.56126 20.20558,6.5481 20.20558,6.5481 l -4.2095,-7.01583 -35.54684,-17.11859 z"
       id="path903"
       inkscape:connector-curvature="0"
       inkscape:export-filename="/home/cubit32/Pictures/sinterklaas.png"
       inkscape:export-xdpi="49.18399"
       inkscape:export-ydpi="49.18399" />
    <path
       style="opacity:1;vector-effect:none;fill:#640510;fill-opacity:1;stroke:none;stroke-width:0.26458332px;stroke-linecap:butt;stroke-linejoin:miter;stroke-miterlimit:4;stroke-dasharray:none;stroke-dashoffset:0;stroke-opacity:1"
       d="m -205.42336,454.80927 c 0,0 -1.77734,3.64824 -1.49671,9.26089 0.28064,5.61266 0.56127,31.80509 0.56127,31.80509 l 10.28988,-0.18709 1.77734,-45.08838 z"
       id="path901"
       inkscape:connector-curvature="0"
       inkscape:export-filename="/home/cubit32/Pictures/sinterklaas.png"
       inkscape:export-xdpi="49.18399"
       inkscape:export-ydpi="49.18399" />
    <path
       style="opacity:1;vector-effect:none;fill:#ff9f00;fill-opacity:1;stroke:none;stroke-width:0.26458332px;stroke-linecap:butt;stroke-linejoin:miter;stroke-miterlimit:4;stroke-dasharray:none;stroke-dashoffset:0;stroke-opacity:1"
       d="m -200.93323,451.81586 2.43215,5.70621 c 0,0 -8.79316,6.17392 -16.65089,8.13835 -7.85772,1.96442 -19.27013,4.20949 -19.27013,4.20949 l 15.34127,-11.31885 z"
       id="path905"
       inkscape:connector-curvature="0"
       inkscape:export-filename="/home/cubit32/Pictures/sinterklaas.png"
       inkscape:export-xdpi="49.18399"
       inkscape:export-ydpi="49.18399" />
    <path
       style="opacity:1;vector-effect:none;fill:#640510;fill-opacity:1;stroke:none;stroke-width:0.26458332px;stroke-linecap:butt;stroke-linejoin:miter;stroke-miterlimit:4;stroke-dasharray:none;stroke-dashoffset:0;stroke-opacity:1"
       d="m -228.99687,465.73802 c 0,0 12.83229,-2.38125 18.1901,-5.29167 5.35781,-2.91041 9.525,-6.15156 9.525,-6.15156 l 3.10886,-16.66875 -7.07761,1.98438 c 0,0 -9.26041,2.3151 -12.89844,7.60677 -3.63802,5.29166 -10.84791,18.52083 -10.84791,18.52083 z"
       id="path897"
       inkscape:connector-curvature="0"
       inkscape:export-filename="/home/cubit32/Pictures/sinterklaas.png"
       inkscape:export-xdpi="49.18399"
       inkscape:export-ydpi="49.18399" />
    <path
       style="opacity:1;vector-effect:none;fill:#ff9f00;fill-opacity:1;stroke:none;stroke-width:0.13229167;stroke-linecap:butt;stroke-linejoin:miter;stroke-miterlimit:4;stroke-dasharray:none;stroke-dashoffset:0;stroke-opacity:1"
       d="m -219.40822,406.82103 c -0.23386,0.28064 -0.23386,1.30963 -0.23386,1.30963 0,0 0.88867,0.93544 0.65481,1.68378 -0.23386,0.74838 -0.42095,1.5435 -1.6838,2.24507 -1.26285,0.7016 -0.79513,0.28065 -0.79513,0.28065 l -0.28063,1.07574 c 0,0 0.23386,1.87089 2.05798,2.05798 1.82411,0.18709 0.42094,3.1805 0.42094,3.1805 l 0.28064,17.63313 c -0.76519,0.32467 -0.39946,0.58289 -0.0468,0.84188 l 1.14592,58.76924 3.67162,-0.0175 -0.58466,-5.17417 -1.07576,-53.64767 c 0.40839,-0.27765 0.6758,-0.55052 -0.0701,-0.95885 l -0.32741,-17.44602 0.18709,-3.1805 c 2.76062,-1.30079 2.85045,-2.7685 -0.37418,-4.44336 l 0.23386,-2.89986 -0.70158,-1.54347 z"
       id="path899"
       inkscape:connector-curvature="0"
       sodipodi:nodetypes="ccccccscccccccccccccc"
       inkscape:export-filename="/home/cubit32/Pictures/sinterklaas.png"
       inkscape:export-xdpi="49.18399"
       inkscape:export-ydpi="49.18399" />
    <path
       style="opacity:1;vector-effect:none;fill:#730513;fill-opacity:1;stroke:none;stroke-width:0.26458332px;stroke-linecap:butt;stroke-linejoin:miter;stroke-miterlimit:4;stroke-dasharray:none;stroke-dashoffset:0;stroke-opacity:1"
       d="m -173.17131,436.75522 c 0,0 10.94468,2.29184 14.40582,5.51913 3.46114,3.22728 15.22903,23.86054 15.22903,23.86054 l -12.89844,-1.71979 -7.67291,-3.175 -18.65313,-13.16302 z"
       id="path895"
       inkscape:connector-curvature="0"
       inkscape:export-filename="/home/cubit32/Pictures/sinterklaas.png"
       inkscape:export-xdpi="49.18399"
       inkscape:export-ydpi="49.18399" />
    <path
       style="opacity:1;vector-effect:none;fill:#ff9f00;fill-opacity:1;stroke:none;stroke-width:0.26458332px;stroke-linecap:butt;stroke-linejoin:miter;stroke-miterlimit:4;stroke-dasharray:none;stroke-dashoffset:0;stroke-opacity:1"
       d="m -179.25521,456.74219 3.96875,39.42291 -3.57187,-1.12448 -1.85208,-36.44635 -0.19844,-3.30729 z"
       id="path893"
       inkscape:connector-curvature="0"
       inkscape:export-filename="/home/cubit32/Pictures/sinterklaas.png"
       inkscape:export-xdpi="49.18399"
       inkscape:export-ydpi="49.18399" />
    <path
       style="opacity:1;vector-effect:none;fill:#ff9f00;fill-opacity:1;stroke:none;stroke-width:0.26458332px;stroke-linecap:butt;stroke-linejoin:miter;stroke-miterlimit:4;stroke-dasharray:none;stroke-dashoffset:0;stroke-opacity:1"
       d="m -197.19145,495.68816 -2.43216,0.0935 3.3676,-36.38875 1.40316,-0.37417 4.58368,2.15154 -4.2095,31.52441 z"
       id="path891"
       inkscape:connector-curvature="0"
       inkscape:export-filename="/home/cubit32/Pictures/sinterklaas.png"
       inkscape:export-xdpi="49.18399"
       inkscape:export-ydpi="49.18399" />
    <path
       style="opacity:1;vector-effect:none;fill:#ffffff;fill-opacity:1;stroke:none;stroke-width:0.26458332px;stroke-linecap:butt;stroke-linejoin:miter;stroke-miterlimit:4;stroke-dasharray:none;stroke-dashoffset:0;stroke-opacity:1"
       d="m -195.63777,460.89596 -2.20849,34.7922 21.60874,0.0935 -3.44941,-38.62522 z"
       id="path889"
       inkscape:connector-curvature="0"
       inkscape:export-filename="/home/cubit32/Pictures/sinterklaas.png"
       inkscape:export-xdpi="49.18399"
       inkscape:export-ydpi="49.18399" />
    <path
       style="opacity:1;vector-effect:none;fill:#f9f9f9;fill-opacity:1;stroke:#cccccc;stroke-width:0.26458332px;stroke-linecap:butt;stroke-linejoin:miter;stroke-miterlimit:4;stroke-dasharray:none;stroke-dashoffset:0;stroke-opacity:1"
       d="m -200.81875,412.22604 c 0,0 2.71198,3.04271 0.33073,3.37344 -2.38125,0.33073 -6.35,2.84427 -6.61458,5.95312 -0.26458,3.10886 0,8.26823 1.5875,9.92188 1.5875,1.65364 0.19844,8.06979 0.85989,10.18646 0.66146,2.11666 3.77032,5.62239 2.91042,8.99583 -0.85989,3.37344 -1.5875,0.13229 0.26458,4.69635 1.85209,4.56407 0.39688,4.56407 5.55625,5.49011 5.15938,0.92604 6.21771,2.44739 8.86355,0.66146 2.64583,-1.78594 8.79739,-3.83646 7.9375,-6.01928 -0.8599,-2.18281 3.50572,-4.03489 2.77812,-8.00364 -0.7276,-3.96875 2.64583,-10.64948 4.69635,-11.9724 2.05053,-1.32291 4.29948,-7.20989 4.16719,-10.78177 -0.13229,-3.57187 -1.38906,-9.32656 -3.9026,-9.98802 -2.51354,-0.66146 -3.77031,-2.51354 -3.77031,-2.51354 l -15.61042,-7.80521 z"
       id="path885"
       inkscape:connector-curvature="0"
       inkscape:export-filename="/home/cubit32/Pictures/sinterklaas.png"
       inkscape:export-xdpi="49.18399"
       inkscape:export-ydpi="49.18399" />
    <path
       style="opacity:1;vector-effect:none;fill:#ff9f00;fill-opacity:1;stroke:none;stroke-width:0.26458332px;stroke-linecap:butt;stroke-linejoin:miter;stroke-miterlimit:4;stroke-dasharray:none;stroke-dashoffset:0;stroke-opacity:1"
       d="m -200.81875,412.22604 8.46667,-4.36562 17.19792,4.36562 c 0.23012,-0.1841 3.45748,-6.84057 3.37343,-8.26823 0.55359,-2.45541 -4.762,-23.80732 -15.27968,-28.24427 -2.70611,-1.14159 -3.2773,0.18295 -3.43959,0.0661 -12.6006,7.65105 -16.26284,25.16503 -10.31875,36.44635 z"
       id="path879"
       inkscape:connector-curvature="0"
       sodipodi:nodetypes="ccccsccc"
       inkscape:export-filename="/home/cubit32/Pictures/sinterklaas.png"
       inkscape:export-xdpi="49.18399"
       inkscape:export-ydpi="49.18399" />
    <path
       style="opacity:1;vector-effect:none;fill:#8a0417;fill-opacity:1;stroke:none;stroke-width:0.99999994px;stroke-linecap:butt;stroke-linejoin:miter;stroke-miterlimit:4;stroke-dasharray:none;stroke-dashoffset:0;stroke-opacity:1"
       d="m 185.46289,9.7246094 c -3.0502,-0.3735816 -67.56445,53.9648296 -37.54101,128.0390606 14.74503,-5.88117 21.91179,-11.28403 34.80078,-12.46679 l -0.22852,-46.419927 -14.15625,0.08594 -0.70311,-7.241652 15.05468,-0.02539 -0.13778,-16.464404 9.04297,0.283203 -0.0224,15.985889 14.88867,-0.13086 0.75981,7.745558 -15.31836,-0.04687 -0.36132,48.298833 42.13086,11.89648 C 276.6177,85.449966 196.18514,11.109985 195.98438,11.138672 192.80616,10.043927 192.02935,9.4958201 185.46289,9.7246094 Z"
       transform="matrix(0.26458334,0,0,0.26458334,-238.76564,375.11473)"
       id="path873"
       inkscape:connector-curvature="0"
       sodipodi:nodetypes="ccccccccccccccccc"
       inkscape:export-filename="/home/cubit32/Pictures/sinterklaas.png"
       inkscape:export-xdpi="49.18399"
       inkscape:export-ydpi="49.18399" />
    <path
       style="opacity:1;vector-effect:none;fill:#d7967b;fill-opacity:1;stroke:none;stroke-width:0.26458332px;stroke-linecap:butt;stroke-linejoin:miter;stroke-miterlimit:4;stroke-dasharray:none;stroke-dashoffset:0;stroke-opacity:1"
       d="m -196.51927,415.66562 c 0,0 -1.45521,4.82865 -0.46302,5.49011 0.99219,0.66146 4.49792,1.85208 4.49792,1.85208 l 0.85989,1.12448 h 4.69636 l 1.65364,-0.99219 4.56407,-0.33073 2.11666,-2.11666 -1.25677,-5.75469 -8.06979,-0.13229 -2.38125,1.32291 -2.11667,-0.92604 z"
       id="path881"
       inkscape:connector-curvature="0"
       inkscape:export-filename="/home/cubit32/Pictures/sinterklaas.png"
       inkscape:export-xdpi="49.18399"
       inkscape:export-ydpi="49.18399" />
    <path
       style="opacity:1;vector-effect:none;fill:none;fill-opacity:1;stroke:none;stroke-width:0.26458332px;stroke-linecap:butt;stroke-linejoin:miter;stroke-miterlimit:4;stroke-dasharray:none;stroke-dashoffset:0;stroke-opacity:1"
       d="m -189.97083,417.94765 c -0.95911,2.77813 -2.38125,4.79558 -2.21588,5.02709 0.16536,0.23151 1.05833,1.15755 2.14974,0.95911 1.0914,-0.19844 3.73724,0.13229 3.77031,-0.42995 0.0331,-0.56224 -1.78594,-2.05052 -1.78594,-2.48047 0,-0.42994 -0.62838,-2.34817 0.0331,-3.34036"
       id="path910"
       inkscape:connector-curvature="0"
       inkscape:export-filename="/home/cubit32/Pictures/sinterklaas.png"
       inkscape:export-xdpi="49.18399"
       inkscape:export-ydpi="49.18399" />
    <path
       style="opacity:1;vector-effect:none;fill:#ff9f00;fill-opacity:1;stroke:none;stroke-width:0.15927917;stroke-linecap:butt;stroke-linejoin:miter;stroke-miterlimit:4;stroke-dasharray:none;stroke-dashoffset:0;stroke-opacity:1"
       d="m -219.54854,407.42907 c -0.98222,-1.82412 -1.6838,-6.50132 1.82411,-11.83336 3.50791,-5.33202 1.54348,-1.68378 3.83532,-4.3498 2.29184,-2.66603 2.43215,-5.75297 1.12253,-7.39 -1.30962,-1.63703 -2.29183,-3.55471 -5.19171,-3.41437 -2.89987,0.14031 -4.58367,3.69498 -4.49013,5.00462 0.0935,1.30961 -0.23386,3.92885 2.57247,4.30302 2.80633,0.3742 3.60146,0.3742 3.92886,-0.65479 0.32741,-1.02899 0.8419,-2.29184 0.46773,-2.75957 -0.37418,-0.46771 -0.93545,-1.02897 -0.93545,-1.02897 0,0 0.88867,1.82409 0.37418,2.24504 -0.51449,0.42096 -1.12253,1.63703 -1.73057,1.44995 -0.60804,-0.18709 -2.38538,-0.51449 -2.80633,-1.44995 -0.42095,-0.93543 -0.98222,-1.91764 -0.28063,-3.32081 0.70158,-1.40316 3.08696,-2.61924 4.20949,-1.91767 1.12253,0.70159 3.32083,2.61924 3.08696,4.34983 -0.23386,1.73056 -0.42095,4.0224 -2.0112,5.33201 -1.59025,1.30964 -3.78854,1.82412 -5.94006,0.60804 -2.15152,-1.21608 -3.97564,-4.86431 -3.50792,-8.32543 0.46773,-3.46115 2.24507,-6.54812 4.11595,-6.87552 1.87089,-0.32739 5.65944,0 7.76419,1.1693 2.10474,1.1693 3.22727,4.44336 3.69499,5.61266 0.46773,1.1693 0.37418,6.78196 -0.74835,7.99804 -1.12253,1.21608 -4.20949,4.11596 -5.14494,5.47235 -0.93544,1.35639 -0.93544,5.51913 -0.70158,6.40779 0.23386,0.88868 0.0468,3.46114 -0.70158,3.41436 -0.74836,-0.0468 -2.80633,-0.0468 -2.80633,-0.0468 z"
       id="path887"
       inkscape:connector-curvature="0"
       inkscape:export-filename="/home/cubit32/Pictures/sinterklaas.png"
       inkscape:export-xdpi="49.18399"
       inkscape:export-ydpi="49.18399" />
    <path
       style="opacity:1;vector-effect:none;fill:#ffffff;fill-opacity:1;stroke:#cccccc;stroke-width:0.26458332px;stroke-linecap:butt;stroke-linejoin:miter;stroke-miterlimit:4;stroke-dasharray:none;stroke-dashoffset:0;stroke-opacity:1"
       d="m -164.35739,474.68744 c 0.23386,0.0468 -7.53032,-2.99341 -7.53032,-2.99341 -0.7399,-0.77346 -1.0362,-1.46864 0.3274,-1.8709 -1.02271,-0.95283 -1.24772,-1.82169 0.0935,-2.52568 0,0 7.99804,1.77734 7.81095,1.63703 -0.18709,-0.14031 -1.82412,-0.84191 -1.82412,-0.84191 -1.12795,-1.29049 -0.85203,-2.09268 0.88868,-2.38538 l 1.4967,0.46774 2.75956,-7.29647 c 0.91867,-1.69894 1.8235,-2.84426 2.61924,0.37417 l 0.5145,5.00462 1.44993,2.75955 -0.0935,5.94008 c 0,0 -0.3274,3.78853 -2.19829,4.16271 -1.87089,0.3742 -5.09817,0.32741 -5.65943,-0.74834 -0.56127,-1.07577 -0.65481,-1.68381 -0.65481,-1.68381 z"
       id="path909"
       inkscape:connector-curvature="0"
       sodipodi:nodetypes="ccccscccccccccscc"
       inkscape:export-filename="/home/cubit32/Pictures/sinterklaas.png"
       inkscape:export-xdpi="49.18399"
       inkscape:export-ydpi="49.18399" />
    <path
       style="opacity:1;vector-effect:none;fill:#ffffff;fill-opacity:1;stroke:#e6e6e6;stroke-width:0.26458332px;stroke-linecap:butt;stroke-linejoin:miter;stroke-miterlimit:4;stroke-dasharray:none;stroke-dashoffset:0;stroke-opacity:1"
       d="m -222.77916,456.54375 c 0,0 -0.52917,1.5875 -0.8599,2.97656 -0.33073,1.38906 -0.13229,9.59115 1.25677,10.58333 1.38906,0.99219 2.84427,2.84427 3.24115,1.52136 0.39687,-1.32292 0.7276,-3.77031 0.7276,-3.77031 l 3.43958,0.59531 c 0.62956,-0.31069 1.4767,-0.26393 0.92605,-2.51354 0.7361,-0.63019 2.18135,-0.75385 0.59531,-3.04271 0.87347,-0.91493 1.38826,-1.84223 -0.26458,-2.84427 0.81613,-0.78533 1.67592,-1.56313 0,-2.77813 0,0 -2.18282,-2.38125 -4.29948,-2.11666 -2.11667,0.26458 -4.7625,1.38906 -4.7625,1.38906 z"
       id="path911"
       inkscape:connector-curvature="0"
       sodipodi:nodetypes="cscccccccccc"
       inkscape:export-filename="/home/cubit32/Pictures/sinterklaas.png"
       inkscape:export-xdpi="49.18399"
       inkscape:export-ydpi="49.18399" />
    <g
       id="g920"
       transform="matrix(1.6337424,0,0,1.6337424,118.03922,-264.72373)"
       style="stroke-width:0.6120916;stroke:none"
       inkscape:export-filename="/home/cubit32/Pictures/sinterklaas.png"
       inkscape:export-xdpi="49.18399"
       inkscape:export-ydpi="49.18399">
      <path
         inkscape:connector-curvature="0"
         id="path923"
         d="m -186.51571,417.81251 c 0,0 0.29233,0.83018 1.37978,0.72495 1.08746,-0.10525 1.46164,-0.40925 1.46164,-0.40925 0,0 -0.31572,-0.52618 -1.181,-0.54957 -0.86529,-0.0233 -1.25116,-0.14033 -1.66042,0.23387 z"
         style="opacity:1;vector-effect:none;fill:#ffffff;fill-opacity:1;stroke:none;stroke-width:0.16194922px;stroke-linecap:butt;stroke-linejoin:miter;stroke-miterlimit:4;stroke-dasharray:none;stroke-dashoffset:0;stroke-opacity:1" />
      <path
         sodipodi:nodetypes="cccccc"
         inkscape:connector-curvature="0"
         id="path925"
         d="m -185.65857,417.54993 c 0,0 -0.31926,0.25088 -0.0503,0.54319 0.26895,0.29234 0.6782,0.54957 1.0173,0.36248 0.3391,-0.18708 0.62929,-0.63213 0.41882,-0.80752 -0.41909,-0.0531 -0.52063,-0.20287 -0.86174,-0.22829 -0.26314,0.0973 -0.4247,0.11396 -0.52407,0.13014 z"
         style="opacity:1;vector-effect:none;fill:#aaccff;fill-opacity:1;stroke:none;stroke-width:0.16194922px;stroke-linecap:butt;stroke-linejoin:miter;stroke-miterlimit:4;stroke-dasharray:none;stroke-dashoffset:0;stroke-opacity:1" />
      <circle
         r="0.39687499"
         cy="417.82422"
         cx="-185.02484"
         id="path937"
         style="fill:#000000;fill-rule:evenodd;stroke-width:0.16194922;stroke:none" />
    </g>
    <g
       id="g915"
       transform="matrix(1.4032264,0,0,1.4032264,77.907726,-167.9601)"
       style="stroke-width:0.71264338;stroke:none"
       inkscape:export-filename="/home/cubit32/Pictures/sinterklaas.png"
       inkscape:export-xdpi="49.18399"
       inkscape:export-ydpi="49.18399">
      <path
         inkscape:connector-curvature="0"
         id="path921"
         d="m -194.54481,417.34679 c 0,0 0.51449,-0.63143 0.95883,-0.61973 0.44434,0.0116 1.27454,0.0351 1.59025,0.26892 0.31572,0.23386 0.35079,0.66651 0.35079,0.66651 0,0 -0.81851,0.33909 -1.41485,0.25725 -0.59635,-0.0819 -1.48502,-0.57295 -1.48502,-0.57295 z"
         style="opacity:1;vector-effect:none;fill:#ffffff;fill-opacity:1;stroke:none;stroke-width:0;stroke-linecap:butt;stroke-linejoin:miter;stroke-miterlimit:4;stroke-dasharray:none;stroke-dashoffset:0;stroke-opacity:1" />
      <path
         inkscape:connector-curvature="0"
         id="path902"
         d="m -193.70489,417.26494 c 0,0 0.0468,0.70157 0.71327,0.68988 0.66651,-0.0116 0.77174,-0.73666 0.77174,-0.73666 0,0 -0.12862,-0.61973 -0.71327,-0.61973 -0.58466,0 -0.71328,0.29234 -0.77174,0.66651 z"
         style="opacity:1;vector-effect:none;fill:#aaccff;fill-opacity:1;stroke:none;stroke-width:0.18855354px;stroke-linecap:butt;stroke-linejoin:miter;stroke-miterlimit:4;stroke-dasharray:none;stroke-dashoffset:0;stroke-opacity:1" />
      <circle
         style="fill:#000000;fill-rule:evenodd;stroke-width:0.18855354;stroke:none"
         id="circle904"
         cx="-192.9507"
         cy="417.25327"
         r="0.39687499" />
    </g>
    <path
       style="opacity:1;vector-effect:none;fill:#c07a7a;fill-opacity:1;stroke:none;stroke-width:0.26458332px;stroke-linecap:butt;stroke-linejoin:miter;stroke-miterlimit:4;stroke-dasharray:none;stroke-dashoffset:0;stroke-opacity:1"
       d="m -190.45626,428.32455 c 0,0 1.20439,0.33909 1.68378,0.43262 0.47943,0.0936 1.27456,-0.0351 1.27456,-0.0351 0,0 -0.21048,-1.32133 -0.28065,-1.32133 -0.0701,0 -0.94713,0.0468 -0.94713,0.0468 z"
       id="path922"
       inkscape:connector-curvature="0"
       inkscape:export-filename="/home/cubit32/Pictures/sinterklaas.png"
       inkscape:export-xdpi="49.18399"
       inkscape:export-ydpi="49.18399" />
  </g>
</svg>
