<?xml version="1.0" encoding="UTF-8" standalone="no"?>
<!-- Created with Inkscape (http://www.inkscape.org/) -->

<svg
   xmlns:dc="http://purl.org/dc/elements/1.1/"
   xmlns:cc="http://creativecommons.org/ns#"
   xmlns:rdf="http://www.w3.org/1999/02/22-rdf-syntax-ns#"
   xmlns:svg="http://www.w3.org/2000/svg"
   xmlns="http://www.w3.org/2000/svg"
   xmlns:sodipodi="http://sodipodi.sourceforge.net/DTD/sodipodi-0.dtd"
   xmlns:inkscape="http://www.inkscape.org/namespaces/inkscape"
   width="389.45969"
   height="490.69122"
   viewBox="0 0 103.04454 129.82862"
   version="1.1"
   id="svg289"
   inkscape:version="0.92.3 (2405546, 2018-03-11)"
   sodipodi:docname="sinterklaas.svg">
  <defs
     id="defs283">
    <filter
       inkscape:collect="always"
       style="color-interpolation-filters:sRGB"
       id="filter6960"
       x="-0.08483389"
       width="1.1696678"
       y="-0.072185054"
       height="1.1443701">
      <feGaussianBlur
         inkscape:collect="always"
         stdDeviation="3.6422882"
         id="feGaussianBlur6962" />
    </filter>
  </defs>
  <sodipodi:namedview
     id="base"
     pagecolor="#ffffff"
     bordercolor="#666666"
     borderopacity="1.0"
     inkscape:pageopacity="0.0"
     inkscape:pageshadow="2"
     inkscape:zoom="1"
     inkscape:cx="24.32547"
     inkscape:cy="239.41978"
     inkscape:document-units="px"
     inkscape:current-layer="layer1"
     showgrid="false"
     showborder="true"
     units="px"
     inkscape:window-width="1533"
     inkscape:window-height="845"
     inkscape:window-x="67"
     inkscape:window-y="27"
     inkscape:window-maximized="1"
     inkscape:object-paths="false"
     inkscape:snap-nodes="false"
     fit-margin-top="0"
     fit-margin-left="0"
     fit-margin-right="0"
     fit-margin-bottom="0"
     inkscape:snap-global="true" />
  <metadata
     id="metadata286">
    <rdf:RDF>
      <cc:Work
         rdf:about="">
        <dc:format>image/svg+xml</dc:format>
        <dc:type
           rdf:resource="http://purl.org/dc/dcmitype/StillImage" />
        <dc:title></dc:title>
      </cc:Work>
    </rdf:RDF>
  </metadata>
  <g
     inkscape:label="Layer 1"
     inkscape:groupmode="layer"
     id="layer1"
     transform="translate(260.47072,-366.51481)">
    <g
       id="g944"
       transform="translate(-63.102973)"
       style="fill:#f5ff00;fill-opacity:1;filter:url(#filter6960)">
      <path
         style="opacity:1;vector-effect:none;fill:#f5ff00;fill-opacity:1;stroke:none;stroke-width:0.26458332px;stroke-linecap:butt;stroke-linejoin:miter;stroke-miterlimit:4;stroke-dasharray:none;stroke-dashoffset:0;stroke-opacity:1"
         d="m -147.74949,375.2465 c -1.05899,0.0125 -1.36379,0.61364 -1.47536,0.53331 -12.6006,7.65105 -16.26284,25.16503 -10.31875,36.44635 0,0 2.71197,3.04271 0.33073,3.37344 -2.38125,0.33073 -6.35001,2.84427 -6.61459,5.95312 -0.26458,3.10886 0,8.26823 1.5875,9.92188 1.20368,1.25383 0.69719,5.24262 0.66973,8.02225 l -0.40514,0.11369 c 0,0 -6.22676,1.55852 -10.4743,5.03741 l -0.15245,-7.58868 c 0.40839,-0.27765 0.67614,-0.55027 -0.0698,-0.9586 l -0.32763,-17.44648 0.18707,-3.18017 c 2.76062,-1.30079 2.85049,-2.76879 -0.37414,-4.44365 l 0.2341,-2.89957 -0.3235,-0.7121 c 0.58653,-0.36271 0.72287,-2.55066 0.51056,-3.35741 -0.23386,-0.88867 -0.23419,-5.05098 0.70126,-6.40737 0.93544,-1.35639 4.02237,-4.25645 5.1449,-5.47253 1.12253,-1.21608 1.21601,-6.82866 0.74827,-7.99796 -0.46771,-1.1693 -1.59012,-4.44328 -3.69486,-5.61258 -2.10475,-1.1693 -5.89298,-1.49683 -7.76387,-1.16944 -1.87088,0.3274 -3.64829,3.4144 -4.11602,6.87555 -0.46772,3.46112 1.35627,7.10951 3.50779,8.32559 2.15152,1.21608 4.34996,0.70141 5.94021,-0.60823 1.59025,-1.30961 1.77739,-3.60141 2.01125,-5.33197 0.23386,-1.73059 -1.96463,-3.64854 -3.08715,-4.35013 -1.12254,-0.70157 -3.50799,0.51456 -4.20957,1.91772 -0.70159,1.40317 -0.14034,2.38529 0.28061,3.32072 0.42095,0.93546 2.1985,1.26295 2.80654,1.45004 0.60804,0.18708 1.21616,-1.02908 1.73064,-1.45004 0.51449,-0.42095 -0.37413,-2.24482 -0.37413,-2.24482 0,0 0.56116,0.56117 0.93534,1.02888 0.37417,0.46773 -0.14026,1.73053 -0.46767,2.75952 -0.3274,1.02899 -1.12263,1.02894 -3.92896,0.65474 -2.80633,-0.37417 -2.47895,-2.99297 -2.57245,-4.30258 -0.0935,-1.30964 1.59029,-4.86455 4.49016,-5.00486 2.89988,-0.14034 3.8818,1.77723 5.19142,3.41426 1.30962,1.63703 1.16943,4.72422 -1.12242,7.39025 -2.29183,2.66602 -0.32751,-0.98242 -3.83542,4.3496 -3.46462,5.26625 -2.8225,9.88867 -1.85983,11.75949 -0.0577,0.37099 -0.0579,0.77566 -0.0579,0.77566 0,0 0.8886,0.93528 0.65474,1.68362 -0.23386,0.74838 -0.42077,1.54377 -1.68362,2.24534 -0.5216,0.28979 -0.74027,0.38341 -0.82631,0.39895 l -0.24959,0.95704 c 0,0 0.23415,1.87118 2.05827,2.05827 1.82411,0.18709 0.42065,3.18017 0.42065,3.18017 l 0.2806,17.63355 c -0.76519,0.32467 -0.39917,0.58282 -0.0465,0.84181 l 0.21601,11.08925 c -3.7831,5.78477 -10.17871,17.51934 -10.17871,17.51934 0,0 0.16799,-0.0326 0.23565,-0.0455 l -4.84105,3.57187 -0.53951,0.13746 c 0,0 -0.0728,0.15216 -0.18706,0.39843 l -0.0935,0.0692 c 0,0 0.0669,-0.0136 0.0687,-0.0139 -0.7691,1.66193 -3.51562,7.88788 -3.99769,13.11031 -0.54322,5.88491 0.14079,12.99613 -0.23874,13.36249 0.83338,-0.0892 12.98466,-0.18682 13.42864,-0.4532 h 7.27242 l 5.3e-4,0.0233 3.67161,-0.0176 -5.3e-4,-0.006 h 8.0455 v -0.004 l 6.55051,-0.11886 -0.003,0.0289 1.42834,-0.0548 1.78542,-0.0326 17.40462,0.0754 0.015,0.13074 2.96674,0.0326 0.73743,0.23203 -0.0227,-0.22428 6.78873,0.0744 c 0,0 0.005,-0.0483 0.005,-0.0491 l 16.64446,-0.13177 c -0.002,-0.053 -0.002,-0.10613 -0.004,-0.15916 l 16.276007,0.42374 c 0,0 -0.264586,-4.82864 -0.396875,-8.33437 -0.132291,-3.50573 -1.256773,-10.71562 -1.719791,-12.36927 -0.314431,-1.12297 -1.864389,-2.47477 -2.836522,-3.2365 l -3.669029,-6.11539 0.68472,0.0915 c 0,0 -11.76791,-20.63328 -15.22905,-23.86056 -3.24738,-3.02797 -12.96773,-5.20661 -14.17019,-5.46737 0.45221,-0.59073 0.89408,-1.04393 1.28726,-1.29759 2.05053,-1.32291 4.29947,-7.20989 4.16718,-10.78177 -0.13229,-3.57187 -1.38906,-9.32656 -3.9026,-9.98803 -2.51354,-0.66145 -3.77031,-2.51354 -3.77031,-2.51354 0.23012,-0.1841 3.45748,-6.84057 3.37344,-8.26823 0.55358,-2.45541 -4.76201,-23.80732 -15.27969,-28.24427 -0.84566,-0.35674 -1.48287,-0.47282 -1.96422,-0.46715 z m -49.56545,121.08202 c -0.0446,0.005 -0.0656,0.01 -0.0419,0.0145 0.015,0.003 0.0292,-0.002 0.0419,-0.0145 z m 17.09249,-83.86981 0.031,-0.11834 c 0,0 -0.15327,0.14041 -0.031,0.11834 z"
         id="path3036"
         inkscape:connector-curvature="0" />
      <g
         id="g932"
         transform="matrix(1.6337424,0,0,1.6337424,118.03922,-264.72373)"
         style="fill:#f5ff00;fill-opacity:1;stroke:none;stroke-width:0.6120916"
         inkscape:export-filename="/home/cubit32/Pictures/sinterklaas.png"
         inkscape:export-xdpi="49.18399"
         inkscape:export-ydpi="49.18399" />
      <g
         id="g940"
         transform="matrix(1.4032264,0,0,1.4032264,77.907726,-167.9601)"
         style="fill:#f5ff00;fill-opacity:1;stroke:none;stroke-width:0.71264338"
         inkscape:export-filename="/home/cubit32/Pictures/sinterklaas.png"
         inkscape:export-xdpi="49.18399"
         inkscape:export-ydpi="49.18399" />
    </g>
    <g
       id="g874"
       transform="translate(-21.827225,-4.0799054e-4)">
      <path
         inkscape:export-ydpi="49.18399"
         inkscape:export-xdpi="49.18399"
         inkscape:export-filename="/home/cubit32/Pictures/sinterklaas.png"
         inkscape:connector-curvature="0"
         id="path919"
         d="m -141.35364,471.55885 c 0,0 3.175,2.18281 3.63802,3.83646 0.46302,1.65365 1.5875,8.86354 1.71979,12.36927 0.13229,3.50573 0.39688,8.33438 0.39688,8.33438 l -17.79323,-0.46302 -2.71198,-30.36094 z"
         style="opacity:1;vector-effect:none;fill:#730513;fill-opacity:1;stroke:none;stroke-width:0.26458332px;stroke-linecap:butt;stroke-linejoin:miter;stroke-miterlimit:4;stroke-dasharray:none;stroke-dashoffset:0;stroke-opacity:1" />
      <path
         inkscape:export-ydpi="49.18399"
         inkscape:export-xdpi="49.18399"
         inkscape:export-filename="/home/cubit32/Pictures/sinterklaas.png"
         sodipodi:nodetypes="ccccccc"
         inkscape:connector-curvature="0"
         id="path917"
         d="m -168.60573,495.96666 16.7349,-0.13229 c -0.30298,-9.41514 -0.0856,-18.86497 -2.91042,-28.11198 l -0.79375,-0.19843 -11.57552,-7.01146 -4.63021,3.30729 z"
         style="opacity:1;vector-effect:none;fill:#ffffff;fill-opacity:1;stroke:none;stroke-width:0.26458332px;stroke-linecap:butt;stroke-linejoin:miter;stroke-miterlimit:4;stroke-dasharray:none;stroke-dashoffset:0;stroke-opacity:1" />
      <path
         inkscape:export-ydpi="49.18399"
         inkscape:export-xdpi="49.18399"
         inkscape:export-filename="/home/cubit32/Pictures/sinterklaas.png"
         inkscape:connector-curvature="0"
         id="path915"
         d="m -225.62893,495.87525 h 19.45722 l 0.37418,-34.89206 -19.92495,5.42557 z"
         style="opacity:1;vector-effect:none;fill:#ffffff;fill-opacity:1;stroke:none;stroke-width:0.26458332px;stroke-linecap:butt;stroke-linejoin:miter;stroke-miterlimit:4;stroke-dasharray:none;stroke-dashoffset:0;stroke-opacity:1" />
      <path
         inkscape:export-ydpi="49.18399"
         inkscape:export-xdpi="49.18399"
         inkscape:export-filename="/home/cubit32/Pictures/sinterklaas.png"
         inkscape:connector-curvature="0"
         id="path913"
         d="m -234.14147,469.40221 c 0,0 -3.64823,7.48352 -4.20949,13.56391 -0.56127,6.08039 0.18709,13.47039 -0.28063,13.37683 -0.46773,-0.0935 13.00266,-0.18708 13.47038,-0.4677 0.46772,-0.28064 0.56127,-28.9052 0.56127,-28.9052 z"
         style="opacity:1;vector-effect:none;fill:#640510;fill-opacity:1;stroke:none;stroke-width:0.26458332px;stroke-linecap:butt;stroke-linejoin:miter;stroke-miterlimit:4;stroke-dasharray:none;stroke-dashoffset:0;stroke-opacity:1" />
      <path
         inkscape:export-ydpi="49.18399"
         inkscape:export-xdpi="49.18399"
         inkscape:export-filename="/home/cubit32/Pictures/sinterklaas.png"
         sodipodi:nodetypes="ccccccc"
         inkscape:connector-curvature="0"
         id="path907"
         d="m -183.62083,454.95625 4.63021,40.94427 10.4705,0.11504 c 0,0 1.6838,-14.68647 1.12254,-17.77344 -0.56127,-3.08695 -0.0935,-17.16538 -0.0935,-17.16538 l -12.90912,-8.69962 z"
         style="opacity:1;vector-effect:none;fill:#730513;fill-opacity:1;stroke:none;stroke-width:0.26458332px;stroke-linecap:butt;stroke-linejoin:miter;stroke-miterlimit:4;stroke-dasharray:none;stroke-dashoffset:0;stroke-opacity:1" />
      <path
         inkscape:export-ydpi="49.18399"
         inkscape:export-xdpi="49.18399"
         inkscape:export-filename="/home/cubit32/Pictures/sinterklaas.png"
         inkscape:connector-curvature="0"
         id="path903"
         d="m -180.07284,453.59319 c 0,0 16.93152,12.16078 19.73785,12.72204 2.80633,0.56126 20.20558,6.5481 20.20558,6.5481 l -4.2095,-7.01583 -35.54684,-17.11859 z"
         style="opacity:1;vector-effect:none;fill:#ff9f00;fill-opacity:1;stroke:none;stroke-width:0.26458332px;stroke-linecap:butt;stroke-linejoin:miter;stroke-miterlimit:4;stroke-dasharray:none;stroke-dashoffset:0;stroke-opacity:1" />
      <path
         inkscape:export-ydpi="49.18399"
         inkscape:export-xdpi="49.18399"
         inkscape:export-filename="/home/cubit32/Pictures/sinterklaas.png"
         inkscape:connector-curvature="0"
         id="path901"
         d="m -205.42336,454.80927 c 0,0 -1.77734,3.64824 -1.49671,9.26089 0.28064,5.61266 0.56127,31.80509 0.56127,31.80509 l 10.28988,-0.18709 1.77734,-45.08838 z"
         style="opacity:1;vector-effect:none;fill:#640510;fill-opacity:1;stroke:none;stroke-width:0.26458332px;stroke-linecap:butt;stroke-linejoin:miter;stroke-miterlimit:4;stroke-dasharray:none;stroke-dashoffset:0;stroke-opacity:1" />
      <path
         inkscape:export-ydpi="49.18399"
         inkscape:export-xdpi="49.18399"
         inkscape:export-filename="/home/cubit32/Pictures/sinterklaas.png"
         inkscape:connector-curvature="0"
         id="path905"
         d="m -200.93323,451.81586 2.43215,5.70621 c 0,0 -8.79316,6.17392 -16.65089,8.13835 -7.85772,1.96442 -19.27013,4.20949 -19.27013,4.20949 l 15.34127,-11.31885 z"
         style="opacity:1;vector-effect:none;fill:#ff9f00;fill-opacity:1;stroke:none;stroke-width:0.26458332px;stroke-linecap:butt;stroke-linejoin:miter;stroke-miterlimit:4;stroke-dasharray:none;stroke-dashoffset:0;stroke-opacity:1" />
      <path
         inkscape:export-ydpi="49.18399"
         inkscape:export-xdpi="49.18399"
         inkscape:export-filename="/home/cubit32/Pictures/sinterklaas.png"
         inkscape:connector-curvature="0"
         id="path897"
         d="m -228.99687,465.73802 c 0,0 12.83229,-2.38125 18.1901,-5.29167 5.35781,-2.91041 9.525,-6.15156 9.525,-6.15156 l 3.10886,-16.66875 -7.07761,1.98438 c 0,0 -9.26041,2.3151 -12.89844,7.60677 -3.63802,5.29166 -10.84791,18.52083 -10.84791,18.52083 z"
         style="opacity:1;vector-effect:none;fill:#640510;fill-opacity:1;stroke:none;stroke-width:0.26458332px;stroke-linecap:butt;stroke-linejoin:miter;stroke-miterlimit:4;stroke-dasharray:none;stroke-dashoffset:0;stroke-opacity:1" />
      <path
         inkscape:export-ydpi="49.18399"
         inkscape:export-xdpi="49.18399"
         inkscape:export-filename="/home/cubit32/Pictures/sinterklaas.png"
         sodipodi:nodetypes="ccccccscccccccccccccc"
         inkscape:connector-curvature="0"
         id="path899"
         d="m -219.40822,406.82103 c -0.23386,0.28064 -0.23386,1.30963 -0.23386,1.30963 0,0 0.88867,0.93544 0.65481,1.68378 -0.23386,0.74838 -0.42095,1.5435 -1.6838,2.24507 -1.26285,0.7016 -0.79513,0.28065 -0.79513,0.28065 l -0.28063,1.07574 c 0,0 0.23386,1.87089 2.05798,2.05798 1.82411,0.18709 0.42094,3.1805 0.42094,3.1805 l 0.28064,17.63313 c -0.76519,0.32467 -0.39946,0.58289 -0.0468,0.84188 l 1.14592,58.76924 3.67162,-0.0175 -0.58466,-5.17417 -1.07576,-53.64767 c 0.40839,-0.27765 0.6758,-0.55052 -0.0701,-0.95885 l -0.32741,-17.44602 0.18709,-3.1805 c 2.76062,-1.30079 2.85045,-2.7685 -0.37418,-4.44336 l 0.23386,-2.89986 -0.70158,-1.54347 z"
         style="opacity:1;vector-effect:none;fill:#ff9f00;fill-opacity:1;stroke:none;stroke-width:0.13229167;stroke-linecap:butt;stroke-linejoin:miter;stroke-miterlimit:4;stroke-dasharray:none;stroke-dashoffset:0;stroke-opacity:1" />
      <path
         inkscape:export-ydpi="49.18399"
         inkscape:export-xdpi="49.18399"
         inkscape:export-filename="/home/cubit32/Pictures/sinterklaas.png"
         inkscape:connector-curvature="0"
         id="path895"
         d="m -173.17131,436.75522 c 0,0 10.94468,2.29184 14.40582,5.51913 3.46114,3.22728 15.22903,23.86054 15.22903,23.86054 l -12.89844,-1.71979 -7.67291,-3.175 -18.65313,-13.16302 z"
         style="opacity:1;vector-effect:none;fill:#730513;fill-opacity:1;stroke:none;stroke-width:0.26458332px;stroke-linecap:butt;stroke-linejoin:miter;stroke-miterlimit:4;stroke-dasharray:none;stroke-dashoffset:0;stroke-opacity:1" />
      <path
         inkscape:export-ydpi="49.18399"
         inkscape:export-xdpi="49.18399"
         inkscape:export-filename="/home/cubit32/Pictures/sinterklaas.png"
         inkscape:connector-curvature="0"
         id="path893"
         d="m -179.25521,456.74219 3.96875,39.42291 -3.57187,-1.12448 -1.85208,-36.44635 -0.19844,-3.30729 z"
         style="opacity:1;vector-effect:none;fill:#ff9f00;fill-opacity:1;stroke:none;stroke-width:0.26458332px;stroke-linecap:butt;stroke-linejoin:miter;stroke-miterlimit:4;stroke-dasharray:none;stroke-dashoffset:0;stroke-opacity:1" />
      <path
         inkscape:export-ydpi="49.18399"
         inkscape:export-xdpi="49.18399"
         inkscape:export-filename="/home/cubit32/Pictures/sinterklaas.png"
         inkscape:connector-curvature="0"
         id="path891"
         d="m -197.19145,495.68816 -2.43216,0.0935 3.3676,-36.38875 1.40316,-0.37417 4.58368,2.15154 -4.2095,31.52441 z"
         style="opacity:1;vector-effect:none;fill:#ff9f00;fill-opacity:1;stroke:none;stroke-width:0.26458332px;stroke-linecap:butt;stroke-linejoin:miter;stroke-miterlimit:4;stroke-dasharray:none;stroke-dashoffset:0;stroke-opacity:1" />
      <path
         inkscape:export-ydpi="49.18399"
         inkscape:export-xdpi="49.18399"
         inkscape:export-filename="/home/cubit32/Pictures/sinterklaas.png"
         inkscape:connector-curvature="0"
         id="path889"
         d="m -195.63777,460.89596 -2.20849,34.7922 21.60874,0.0935 -3.44941,-38.62522 z"
         style="opacity:1;vector-effect:none;fill:#ffffff;fill-opacity:1;stroke:none;stroke-width:0.26458332px;stroke-linecap:butt;stroke-linejoin:miter;stroke-miterlimit:4;stroke-dasharray:none;stroke-dashoffset:0;stroke-opacity:1" />
      <path
         inkscape:export-ydpi="49.18399"
         inkscape:export-xdpi="49.18399"
         inkscape:export-filename="/home/cubit32/Pictures/sinterklaas.png"
         inkscape:connector-curvature="0"
         id="path885"
         d="m -200.81875,412.22604 c 0,0 2.71198,3.04271 0.33073,3.37344 -2.38125,0.33073 -6.35,2.84427 -6.61458,5.95312 -0.26458,3.10886 0,8.26823 1.5875,9.92188 1.5875,1.65364 0.19844,8.06979 0.85989,10.18646 0.66146,2.11666 3.77032,5.62239 2.91042,8.99583 -0.85989,3.37344 -1.5875,0.13229 0.26458,4.69635 1.85209,4.56407 0.39688,4.56407 5.55625,5.49011 5.15938,0.92604 6.21771,2.44739 8.86355,0.66146 2.64583,-1.78594 8.79739,-3.83646 7.9375,-6.01928 -0.8599,-2.18281 3.50572,-4.03489 2.77812,-8.00364 -0.7276,-3.96875 2.64583,-10.64948 4.69635,-11.9724 2.05053,-1.32291 4.29948,-7.20989 4.16719,-10.78177 -0.13229,-3.57187 -1.38906,-9.32656 -3.9026,-9.98802 -2.51354,-0.66146 -3.77031,-2.51354 -3.77031,-2.51354 l -15.61042,-7.80521 z"
         style="opacity:1;vector-effect:none;fill:#f9f9f9;fill-opacity:1;stroke:#cccccc;stroke-width:0.26458332px;stroke-linecap:butt;stroke-linejoin:miter;stroke-miterlimit:4;stroke-dasharray:none;stroke-dashoffset:0;stroke-opacity:1" />
      <path
         inkscape:export-ydpi="49.18399"
         inkscape:export-xdpi="49.18399"
         inkscape:export-filename="/home/cubit32/Pictures/sinterklaas.png"
         sodipodi:nodetypes="ccccsccc"
         inkscape:connector-curvature="0"
         id="path879"
         d="m -200.81875,412.22604 8.46667,-4.36562 17.19792,4.36562 c 0.23012,-0.1841 3.45748,-6.84057 3.37343,-8.26823 0.55359,-2.45541 -4.762,-23.80732 -15.27968,-28.24427 -2.70611,-1.14159 -3.2773,0.18295 -3.43959,0.0661 -12.6006,7.65105 -16.26284,25.16503 -10.31875,36.44635 z"
         style="opacity:1;vector-effect:none;fill:#ff9f00;fill-opacity:1;stroke:none;stroke-width:0.26458332px;stroke-linecap:butt;stroke-linejoin:miter;stroke-miterlimit:4;stroke-dasharray:none;stroke-dashoffset:0;stroke-opacity:1" />
      <path
         inkscape:export-ydpi="49.18399"
         inkscape:export-xdpi="49.18399"
         inkscape:export-filename="/home/cubit32/Pictures/sinterklaas.png"
         sodipodi:nodetypes="ccccccccccccccccc"
         inkscape:connector-curvature="0"
         id="path873"
         transform="matrix(0.26458334,0,0,0.26458334,-238.76564,375.11473)"
         d="m 185.46289,9.7246094 c -3.0502,-0.3735816 -67.56445,53.9648296 -37.54101,128.0390606 14.74503,-5.88117 21.91179,-11.28403 34.80078,-12.46679 l -0.22852,-46.419927 -14.15625,0.08594 -0.70311,-7.241652 15.05468,-0.02539 -0.13778,-16.464404 9.04297,0.283203 -0.0224,15.985889 14.88867,-0.13086 0.75981,7.745558 -15.31836,-0.04687 -0.36132,48.298833 42.13086,11.89648 C 276.6177,85.449966 196.18514,11.109985 195.98438,11.138672 192.80616,10.043927 192.02935,9.4958201 185.46289,9.7246094 Z"
         style="opacity:1;vector-effect:none;fill:#8a0417;fill-opacity:1;stroke:none;stroke-width:0.99999994px;stroke-linecap:butt;stroke-linejoin:miter;stroke-miterlimit:4;stroke-dasharray:none;stroke-dashoffset:0;stroke-opacity:1" />
      <path
         inkscape:export-ydpi="49.18399"
         inkscape:export-xdpi="49.18399"
         inkscape:export-filename="/home/cubit32/Pictures/sinterklaas.png"
         inkscape:connector-curvature="0"
         id="path881"
         d="m -196.51927,415.66562 c 0,0 -1.45521,4.82865 -0.46302,5.49011 0.99219,0.66146 4.49792,1.85208 4.49792,1.85208 l 0.85989,1.12448 h 4.69636 l 1.65364,-0.99219 4.56407,-0.33073 2.11666,-2.11666 -1.25677,-5.75469 -8.06979,-0.13229 -2.38125,1.32291 -2.11667,-0.92604 z"
         style="opacity:1;vector-effect:none;fill:#d7967b;fill-opacity:1;stroke:none;stroke-width:0.26458332px;stroke-linecap:butt;stroke-linejoin:miter;stroke-miterlimit:4;stroke-dasharray:none;stroke-dashoffset:0;stroke-opacity:1" />
      <path
         inkscape:export-ydpi="49.18399"
         inkscape:export-xdpi="49.18399"
         inkscape:export-filename="/home/cubit32/Pictures/sinterklaas.png"
         inkscape:connector-curvature="0"
         id="path910"
         d="m -189.97083,417.94765 c -0.95911,2.77813 -2.38125,4.79558 -2.21588,5.02709 0.16536,0.23151 1.05833,1.15755 2.14974,0.95911 1.0914,-0.19844 3.73724,0.13229 3.77031,-0.42995 0.0331,-0.56224 -1.78594,-2.05052 -1.78594,-2.48047 0,-0.42994 -0.62838,-2.34817 0.0331,-3.34036"
         style="opacity:1;vector-effect:none;fill:none;fill-opacity:1;stroke:none;stroke-width:0.26458332px;stroke-linecap:butt;stroke-linejoin:miter;stroke-miterlimit:4;stroke-dasharray:none;stroke-dashoffset:0;stroke-opacity:1" />
      <path
         inkscape:export-ydpi="49.18399"
         inkscape:export-xdpi="49.18399"
         inkscape:export-filename="/home/cubit32/Pictures/sinterklaas.png"
         inkscape:connector-curvature="0"
         id="path887"
         d="m -219.54854,407.42907 c -0.98222,-1.82412 -1.6838,-6.50132 1.82411,-11.83336 3.50791,-5.33202 1.54348,-1.68378 3.83532,-4.3498 2.29184,-2.66603 2.43215,-5.75297 1.12253,-7.39 -1.30962,-1.63703 -2.29183,-3.55471 -5.19171,-3.41437 -2.89987,0.14031 -4.58367,3.69498 -4.49013,5.00462 0.0935,1.30961 -0.23386,3.92885 2.57247,4.30302 2.80633,0.3742 3.60146,0.3742 3.92886,-0.65479 0.32741,-1.02899 0.8419,-2.29184 0.46773,-2.75957 -0.37418,-0.46771 -0.93545,-1.02897 -0.93545,-1.02897 0,0 0.88867,1.82409 0.37418,2.24504 -0.51449,0.42096 -1.12253,1.63703 -1.73057,1.44995 -0.60804,-0.18709 -2.38538,-0.51449 -2.80633,-1.44995 -0.42095,-0.93543 -0.98222,-1.91764 -0.28063,-3.32081 0.70158,-1.40316 3.08696,-2.61924 4.20949,-1.91767 1.12253,0.70159 3.32083,2.61924 3.08696,4.34983 -0.23386,1.73056 -0.42095,4.0224 -2.0112,5.33201 -1.59025,1.30964 -3.78854,1.82412 -5.94006,0.60804 -2.15152,-1.21608 -3.97564,-4.86431 -3.50792,-8.32543 0.46773,-3.46115 2.24507,-6.54812 4.11595,-6.87552 1.87089,-0.32739 5.65944,0 7.76419,1.1693 2.10474,1.1693 3.22727,4.44336 3.69499,5.61266 0.46773,1.1693 0.37418,6.78196 -0.74835,7.99804 -1.12253,1.21608 -4.20949,4.11596 -5.14494,5.47235 -0.93544,1.35639 -0.93544,5.51913 -0.70158,6.40779 0.23386,0.88868 0.0468,3.46114 -0.70158,3.41436 -0.74836,-0.0468 -2.80633,-0.0468 -2.80633,-0.0468 z"
         style="opacity:1;vector-effect:none;fill:#ff9f00;fill-opacity:1;stroke:none;stroke-width:0.15927917;stroke-linecap:butt;stroke-linejoin:miter;stroke-miterlimit:4;stroke-dasharray:none;stroke-dashoffset:0;stroke-opacity:1" />
      <path
         inkscape:export-ydpi="49.18399"
         inkscape:export-xdpi="49.18399"
         inkscape:export-filename="/home/cubit32/Pictures/sinterklaas.png"
         sodipodi:nodetypes="ccccscccccccccscc"
         inkscape:connector-curvature="0"
         id="path909"
         d="m -164.35739,474.68744 c 0.23386,0.0468 -7.53032,-2.99341 -7.53032,-2.99341 -0.7399,-0.77346 -1.0362,-1.46864 0.3274,-1.8709 -1.02271,-0.95283 -1.24772,-1.82169 0.0935,-2.52568 0,0 7.99804,1.77734 7.81095,1.63703 -0.18709,-0.14031 -1.82412,-0.84191 -1.82412,-0.84191 -1.12795,-1.29049 -0.85203,-2.09268 0.88868,-2.38538 l 1.4967,0.46774 2.75956,-7.29647 c 0.91867,-1.69894 1.8235,-2.84426 2.61924,0.37417 l 0.5145,5.00462 1.44993,2.75955 -0.0935,5.94008 c 0,0 -0.3274,3.78853 -2.19829,4.16271 -1.87089,0.3742 -5.09817,0.32741 -5.65943,-0.74834 -0.56127,-1.07577 -0.65481,-1.68381 -0.65481,-1.68381 z"
         style="opacity:1;vector-effect:none;fill:#ffffff;fill-opacity:1;stroke:#cccccc;stroke-width:0.26458332px;stroke-linecap:butt;stroke-linejoin:miter;stroke-miterlimit:4;stroke-dasharray:none;stroke-dashoffset:0;stroke-opacity:1" />
      <path
         inkscape:export-ydpi="49.18399"
         inkscape:export-xdpi="49.18399"
         inkscape:export-filename="/home/cubit32/Pictures/sinterklaas.png"
         sodipodi:nodetypes="cscccccccccc"
         inkscape:connector-curvature="0"
         id="path911"
         d="m -222.77916,456.54375 c 0,0 -0.52917,1.5875 -0.8599,2.97656 -0.33073,1.38906 -0.13229,9.59115 1.25677,10.58333 1.38906,0.99219 2.84427,2.84427 3.24115,1.52136 0.39687,-1.32292 0.7276,-3.77031 0.7276,-3.77031 l 3.43958,0.59531 c 0.62956,-0.31069 1.4767,-0.26393 0.92605,-2.51354 0.7361,-0.63019 2.18135,-0.75385 0.59531,-3.04271 0.87347,-0.91493 1.38826,-1.84223 -0.26458,-2.84427 0.81613,-0.78533 1.67592,-1.56313 0,-2.77813 0,0 -2.18282,-2.38125 -4.29948,-2.11666 -2.11667,0.26458 -4.7625,1.38906 -4.7625,1.38906 z"
         style="opacity:1;vector-effect:none;fill:#ffffff;fill-opacity:1;stroke:#e6e6e6;stroke-width:0.26458332px;stroke-linecap:butt;stroke-linejoin:miter;stroke-miterlimit:4;stroke-dasharray:none;stroke-dashoffset:0;stroke-opacity:1" />
      <g
         inkscape:export-ydpi="49.18399"
         inkscape:export-xdpi="49.18399"
         inkscape:export-filename="/home/cubit32/Pictures/sinterklaas.png"
         style="stroke:none;stroke-width:0.6120916"
         transform="matrix(1.6337424,0,0,1.6337424,118.03922,-264.72373)"
         id="g920">
        <path
           style="opacity:1;vector-effect:none;fill:#ffffff;fill-opacity:1;stroke:none;stroke-width:0.16194922px;stroke-linecap:butt;stroke-linejoin:miter;stroke-miterlimit:4;stroke-dasharray:none;stroke-dashoffset:0;stroke-opacity:1"
           d="m -186.51571,417.81251 c 0,0 0.29233,0.83018 1.37978,0.72495 1.08746,-0.10525 1.46164,-0.40925 1.46164,-0.40925 0,0 -0.31572,-0.52618 -1.181,-0.54957 -0.86529,-0.0233 -1.25116,-0.14033 -1.66042,0.23387 z"
           id="path923"
           inkscape:connector-curvature="0" />
        <path
           style="opacity:1;vector-effect:none;fill:#aaccff;fill-opacity:1;stroke:none;stroke-width:0.16194922px;stroke-linecap:butt;stroke-linejoin:miter;stroke-miterlimit:4;stroke-dasharray:none;stroke-dashoffset:0;stroke-opacity:1"
           d="m -185.65857,417.54993 c 0,0 -0.31926,0.25088 -0.0503,0.54319 0.26895,0.29234 0.6782,0.54957 1.0173,0.36248 0.3391,-0.18708 0.62929,-0.63213 0.41882,-0.80752 -0.41909,-0.0531 -0.52063,-0.20287 -0.86174,-0.22829 -0.26314,0.0973 -0.4247,0.11396 -0.52407,0.13014 z"
           id="path925"
           inkscape:connector-curvature="0"
           sodipodi:nodetypes="cccccc" />
        <circle
           style="fill:#000000;fill-rule:evenodd;stroke:none;stroke-width:0.16194922"
           id="path937"
           cx="-185.02484"
           cy="417.82422"
           r="0.39687499" />
      </g>
      <g
         inkscape:export-ydpi="49.18399"
         inkscape:export-xdpi="49.18399"
         inkscape:export-filename="/home/cubit32/Pictures/sinterklaas.png"
         style="stroke:none;stroke-width:0.71264338"
         transform="matrix(1.4032264,0,0,1.4032264,77.907726,-167.9601)"
         id="g915">
        <path
           style="opacity:1;vector-effect:none;fill:#ffffff;fill-opacity:1;stroke:none;stroke-width:0;stroke-linecap:butt;stroke-linejoin:miter;stroke-miterlimit:4;stroke-dasharray:none;stroke-dashoffset:0;stroke-opacity:1"
           d="m -194.54481,417.34679 c 0,0 0.51449,-0.63143 0.95883,-0.61973 0.44434,0.0116 1.27454,0.0351 1.59025,0.26892 0.31572,0.23386 0.35079,0.66651 0.35079,0.66651 0,0 -0.81851,0.33909 -1.41485,0.25725 -0.59635,-0.0819 -1.48502,-0.57295 -1.48502,-0.57295 z"
           id="path921"
           inkscape:connector-curvature="0" />
        <path
           style="opacity:1;vector-effect:none;fill:#aaccff;fill-opacity:1;stroke:none;stroke-width:0.18855354px;stroke-linecap:butt;stroke-linejoin:miter;stroke-miterlimit:4;stroke-dasharray:none;stroke-dashoffset:0;stroke-opacity:1"
           d="m -193.70489,417.26494 c 0,0 0.0468,0.70157 0.71327,0.68988 0.66651,-0.0116 0.77174,-0.73666 0.77174,-0.73666 0,0 -0.12862,-0.61973 -0.71327,-0.61973 -0.58466,0 -0.71328,0.29234 -0.77174,0.66651 z"
           id="path902"
           inkscape:connector-curvature="0" />
        <circle
           r="0.39687499"
           cy="417.25327"
           cx="-192.9507"
           id="circle904"
           style="fill:#000000;fill-rule:evenodd;stroke:none;stroke-width:0.18855354" />
      </g>
      <path
         inkscape:export-ydpi="49.18399"
         inkscape:export-xdpi="49.18399"
         inkscape:export-filename="/home/cubit32/Pictures/sinterklaas.png"
         inkscape:connector-curvature="0"
         id="path922"
         d="m -190.45626,428.32455 c 0,0 1.20439,0.33909 1.68378,0.43262 0.47943,0.0936 1.27456,-0.0351 1.27456,-0.0351 0,0 -0.21048,-1.32133 -0.28065,-1.32133 -0.0701,0 -0.94713,0.0468 -0.94713,0.0468 z"
         style="opacity:1;vector-effect:none;fill:#c07a7a;fill-opacity:1;stroke:none;stroke-width:0.26458332px;stroke-linecap:butt;stroke-linejoin:miter;stroke-miterlimit:4;stroke-dasharray:none;stroke-dashoffset:0;stroke-opacity:1" />
    </g>
  </g>
</svg>
